<svg width="197" height="39" viewBox="0 0 197 39" fill="none" xmlns="http://www.w3.org/2000/svg">
<path d="M124.982 0.209643C124.921 0.202537 124.875 0.163451 124.875 0.103046C124.875 0.0461947 124.921 0 124.982 0H189.227V39C174.492 18.1889 151.453 3.69179 124.982 0.209643Z" fill="#FF6B00"/>
<path d="M178.628 22.7227C179.062 16.3021 178.923 12.5534 180.021 11.5372C181.037 10.5956 182.871 10.3398 185.987 10.1124C179.151 9.32356 179.314 9.5261 178.628 2.87805C177.942 9.52255 178.106 9.32001 171.27 10.1124C174.382 10.3398 176.216 10.5956 177.235 11.5372C178.33 12.5534 178.191 16.3021 178.628 22.7227Z" fill="white"/>
<path d="M43.2936 24.4034V38.2823H47.1311V26.9866C48.4244 25.878 49.3483 26.2476 51.8924 28.3546L53.4416 24.8831C52.667 24.5527 51.6685 24.1832 50.2295 24.1832C48.7904 24.1832 47.7173 24.8831 47.2021 25.5121L47.0174 25.7324L46.9818 25.6968L47.0174 24.4034H43.2936ZM58.8353 17.0554H54.9979V38.2823H58.8353V17.0554ZM25.954 31.3429C25.954 35.2194 28.8321 38.4315 33.4832 38.4315C38.1343 38.4315 41.0124 35.2194 41.0124 31.3429C41.0124 27.4663 38.1343 24.2542 33.4832 24.2542C28.8321 24.2542 25.954 27.4663 25.954 31.3429ZM107.415 24.4034H103.577V38.2823H107.415V24.4034ZM105.976 18.1285C104.832 18.1285 103.943 19.0132 103.943 20.1574C103.943 21.3015 104.828 22.1863 105.976 22.1863C107.12 22.1863 108.005 21.3015 108.005 20.1574C108.005 19.0132 107.12 18.1285 105.976 18.1285ZM109.806 28.2054C109.437 33.4855 117.19 32.2276 116.969 35.4397C116.859 36.7295 115.751 37.1737 114.571 37.1382C112.652 36.9889 111.469 35.8839 110.435 34.6651L109.291 37.2128C110.84 38.0975 112.538 38.5417 114.017 38.6518C117.339 38.8721 120.146 37.4331 120.327 34.221C120.658 29.2394 112.649 29.8647 112.798 27.3171C112.873 26.2085 114.127 25.6577 115.417 25.7288C116.745 25.8389 117.779 26.578 118.924 27.612L119.958 25.3237C118.519 24.6948 117.151 24.3999 115.935 24.2898C112.354 24.0695 109.952 25.9527 109.806 28.2054ZM68.0523 38.5772C69.8609 38.5772 71.3391 37.9483 72.6644 36.9143L72.739 36.9534V38.2823H76.2816V17.0554H72.4441V25.5085C71.3746 24.6948 69.7508 24.1796 68.0879 24.1796C65.9844 24.1796 60.9637 25.4694 60.9637 31.5632C60.9673 36.1042 64.9504 38.5772 68.0523 38.5772ZM93.0918 38.2823H94.7156L102.838 19.6422H100.735L95.0887 32.7464L89.5137 19.6422H84.8626L93.0918 38.2823ZM161.072 38.2823V30.6429C161.072 25.473 157.124 24.1832 154.797 24.1832C153.134 24.1832 151.73 24.8121 150.33 25.7714L150.256 25.7324V24.4034H146.713V38.2823H150.551V27.0968C151.695 26.0983 152.803 25.6933 153.763 25.6933C155.795 25.6933 157.195 27.6511 157.195 29.7901V38.2787H161.072V38.2823ZM15.9517 21.4117H13.7736L9.41733 32.6682L4.76619 19.7132H0.299805L7.20369 38.2432H9.30719L13.7736 26.8019L18.2044 38.2432H20.3079L27.2118 19.7488H25.1083L20.2724 32.6682L15.9517 21.4117ZM36.9547 31.3429C36.9547 34.555 35.8852 37.0991 33.4868 37.0991C31.0883 37.0991 30.0153 34.5514 30.0153 31.3429C30.0153 28.1308 31.0848 25.5831 33.4868 25.5831C35.8852 25.5831 36.9547 28.1308 36.9547 31.3429ZM129.167 31.3429C129.167 35.2194 132.046 38.4315 136.697 38.4315C141.348 38.4315 144.226 35.2194 144.226 31.3429C144.226 27.4663 141.348 24.2542 136.697 24.2542C132.046 24.2542 129.167 27.4663 129.167 31.3429ZM140.168 31.3429C140.168 34.555 139.099 37.0991 136.7 37.0991C134.302 37.0991 133.229 34.5514 133.229 31.3429C133.229 28.1308 134.298 25.5831 136.7 25.5831C139.095 25.5831 140.168 28.1308 140.168 31.3429ZM72.4441 27.1714V35.5499C71.4492 36.3991 70.5254 37.028 69.1219 37.028C67.4234 37.028 65.2098 35.589 65.2098 31.4175C65.2098 26.912 68.7168 23.6644 72.4441 27.1714Z" fill="#231F20"/>
<path d="M126.652 24.4036H122.814V38.2824H126.652V24.4036Z" fill="#231F20"/>
<path d="M124.858 18.1285C123.713 18.1285 122.829 19.0133 122.829 20.1574C122.829 21.3016 123.713 22.1863 124.858 22.1863C126.002 22.1863 126.886 21.3016 126.886 20.1574C126.886 19.0133 126.002 18.1285 124.858 18.1285Z" fill="#231F20"/>
<path d="M195.9 1.57053C196.273 1.94007 196.462 2.38777 196.462 2.9101C196.462 3.42531 196.277 3.86946 195.907 4.23899C195.538 4.60852 195.094 4.79685 194.575 4.79685C194.049 4.79685 193.601 4.61209 193.228 4.23545C192.859 3.86236 192.67 3.42176 192.67 2.9101C192.67 2.39488 192.855 1.95073 193.228 1.57764C193.601 1.20456 194.046 1.01624 194.568 1.01624C195.083 1.01624 195.524 1.201 195.9 1.57053ZM195.755 4.08976C196.081 3.76287 196.245 3.36491 196.245 2.89944C196.245 2.44107 196.081 2.04667 195.751 1.71977C195.421 1.39288 195.03 1.22588 194.575 1.22588C194.113 1.22588 193.715 1.39288 193.388 1.72333C193.058 2.05377 192.891 2.44818 192.891 2.90654C192.891 3.36846 193.058 3.76287 193.388 4.08976C193.722 4.41666 194.117 4.58011 194.575 4.58011C195.033 4.58011 195.428 4.41666 195.755 4.08976ZM193.743 1.84058H194.65C194.884 1.84058 195.065 1.89032 195.193 1.99337C195.321 2.09286 195.385 2.23499 195.385 2.4162C195.385 2.56543 195.332 2.6898 195.225 2.79284C195.119 2.89588 194.976 2.95984 194.802 2.98471C194.891 3.01314 194.962 3.05578 195.019 3.10907C195.076 3.16237 195.133 3.23344 195.193 3.32582L195.598 3.94408H195.104L194.788 3.41465C194.699 3.26897 194.628 3.18014 194.571 3.14816C194.515 3.11618 194.44 3.10197 194.34 3.10197H194.17V3.94408H193.743V1.84058ZM194.468 2.81061C194.603 2.81061 194.713 2.78218 194.795 2.72533C194.88 2.66848 194.92 2.57965 194.92 2.46239C194.92 2.24209 194.774 2.13194 194.483 2.13194H194.17V2.80705H194.468V2.81061Z" fill="#231F20"/>
<path d="M165.233 24.3536C165.606 24.7231 165.794 25.1708 165.794 25.6932C165.794 26.2084 165.609 26.6525 165.24 27.0221C164.87 27.3916 164.426 27.5799 163.907 27.5799C163.382 27.5799 162.934 27.3952 162.561 27.0185C162.191 26.6454 162.003 26.2048 162.003 25.6932C162.003 25.178 162.188 24.7338 162.561 24.3607C162.934 23.9876 163.378 23.7993 163.9 23.7993C164.416 23.7993 164.86 23.9841 165.233 24.3536ZM165.087 26.8764C165.414 26.5495 165.577 26.1515 165.577 25.6861C165.577 25.2277 165.414 24.8333 165.084 24.5064C164.753 24.1795 164.362 24.0125 163.907 24.0125C163.446 24.0125 163.048 24.1795 162.721 24.51C162.39 24.8404 162.223 25.2348 162.223 25.6932C162.223 26.1551 162.39 26.5495 162.721 26.8764C163.055 27.2033 163.449 27.3667 163.907 27.3667C164.366 27.3667 164.76 27.2033 165.087 26.8764ZM163.076 24.6272H163.982C164.217 24.6272 164.398 24.677 164.526 24.78C164.654 24.8795 164.718 25.0216 164.718 25.2028C164.718 25.3521 164.664 25.4764 164.558 25.5795C164.451 25.6825 164.309 25.7465 164.135 25.7713C164.224 25.7998 164.295 25.8424 164.352 25.8957C164.408 25.949 164.465 26.0201 164.526 26.1124L164.931 26.7307H164.437L164.121 26.2013C164.032 26.0556 163.961 25.9668 163.904 25.9348C163.847 25.9028 163.772 25.8886 163.673 25.8886H163.502V26.7307H163.076V24.6272ZM163.801 25.5972C163.936 25.5972 164.046 25.5688 164.128 25.512C164.213 25.4551 164.252 25.3663 164.252 25.249C164.252 25.0287 164.106 24.9186 163.815 24.9186H163.502V25.5937H163.801V25.5972Z" fill="#231F20"/>
</svg>
